<svg width="33" height="33" viewBox="0 0 33 33" fill="none" xmlns="http://www.w3.org/2000/svg">
<path fill-rule="evenodd" clip-rule="evenodd" d="M16.5422 0.549561C7.5901 0.549561 0.334473 7.80519 0.334473 16.7573C0.334473 23.9171 4.9771 29.9929 11.4186 32.1379C12.2295 32.2842 12.522 31.7853 12.522 31.3563C12.522 30.9712 12.509 29.9507 12.5041 28.6003C7.99472 29.5786 7.04247 26.4261 7.04247 26.4261C6.30797 24.5541 5.2436 24.0552 5.2436 24.0552C3.77297 23.0493 5.35572 23.0721 5.35572 23.0721C6.98397 23.1858 7.8371 24.7426 7.8371 24.7426C9.28335 27.2191 11.6331 26.5041 12.5528 26.0897C12.7007 25.0416 13.1232 24.3266 13.5847 23.9219C9.98697 23.5141 6.20397 22.1231 6.20397 15.9107C6.20397 14.1443 6.8361 12.6948 7.86797 11.5638C7.70385 11.1527 7.14322 9.50331 8.02885 7.27381C8.02885 7.27381 9.38897 6.83669 12.4846 8.93294C13.8067 8.57328 15.1705 8.38969 16.5406 8.38694C17.9108 8.38916 19.2746 8.57275 20.5966 8.93294C23.6938 6.83506 25.0523 7.27381 25.0523 7.27381C25.938 9.50331 25.3822 11.1527 25.2132 11.5638C26.2532 12.6948 26.8772 14.1427 26.8772 15.9107C26.8772 22.1393 23.091 23.5076 19.4802 23.9089C20.0571 24.4094 20.5771 25.3974 20.5771 26.9087C20.5771 29.0764 20.5576 30.8249 20.5576 31.3563C20.5576 31.7902 20.8468 32.2939 21.674 32.1347C28.1122 29.9864 32.75 23.9154 32.75 16.7573C32.75 7.80519 25.4943 0.549561 16.5422 0.549561Z" fill="white"/>
</svg>
